<svg width="800" height="800" xmlns="http://www.w3.org/2000/svg">

 <g>
  <title>Layer 1</title>
  <path stroke="#000" stroke-width="0" transform="rotate(45.2495 335.163 371.282)" id="svg_1" d="m286.66315,324.58801l96.9993,0l0,93.38855l-96.9993,0l0,-93.38855z" fill="#84D3DB"/>
  <path stroke-width="0" stroke="#000" transform="rotate(88.1146 328.145 310.225)" id="svg_3" d="m270.26477,372.83395l0,-125.21786l115.76047,125.21786l-115.76047,0z" fill="#529D94"/>
  <path stroke="#529D94" stroke-width="0" transform="rotate(44.975 408.32 444.305)" id="svg_8" d="m352.96115,490.93649l0,-93.26306l110.71777,93.26306l-110.71777,0z" fill="#529D94"/>
  <path stroke-width="0" stroke="#000" transform="rotate(45.2495 269.163 436.282)" id="svg_9" d="m220.66315,389.58801l96.9993,0l0,93.38855l-96.9993,0l0,-93.38855z" fill="#529D94"/>
  <path stroke="#000" stroke-width="0" transform="rotate(135.701 194.82 509.055)" id="svg_10" d="m136.77669,557.60138l0,-97.09256l116.08673,97.09256l-116.08673,0z" fill="#84D3DB"/>
  <path style="vector-effect: non-scaling-stroke;" stroke="#000" id="svg_17" d="m509.43704,496.00467l1.48999,1.48999l-1.48999,-1.48999z" stroke-width="0" fill="#000000"/>
  <path style="vector-effect: non-scaling-stroke;" stroke="#000" id="svg_18" d="m236.80943,486.05475l1.48999,1.49002l-1.48999,-1.49002z" stroke-width="0" fill="#000000"/>
  <path id="svg_22" d="m374.19324,285.6004c-0.03775,0 -0.0675,0.03857 -0.0675,0.03857s0.02975,0.03857 0.0675,0.03857c0.02884,0 0.0675,-0.03857 0.0675,-0.03857s-0.03867,-0.03857 -0.0675,-0.03857zm0,0.06262c-0.01324,0 -0.02405,-0.01077 -0.02405,-0.02405s0.0108,-0.02402 0.02405,-0.02402s0.02402,0.01077 0.02402,0.02402s-0.01077,0.02405 -0.02402,0.02405zm0,-0.03806c-0.00775,0 -0.01404,0.00626 -0.01404,0.01401c0,0.00775 0.00629,0.01404 0.01404,0.01404c0.00775,0 0.01401,-0.00629 0.01401,-0.01404c0,-0.00772 -0.00626,-0.01401 -0.01401,-0.01401z" stroke-width="0" stroke="#000" fill="#000000"/>
  <path transform="rotate(7.57146 326.931 262.754)" stroke="#000" id="svg_23" d="m326.93115,262.71564c-0.03772,0 -0.0675,0.03857 -0.0675,0.03857s0.02979,0.03857 0.0675,0.03857c0.02887,0 0.0675,-0.03857 0.0675,-0.03857s-0.03864,-0.03857 -0.0675,-0.03857zm0,0.06259c-0.01324,0 -0.02405,-0.01077 -0.02405,-0.02402s0.0108,-0.02405 0.02405,-0.02405s0.02405,0.0108 0.02405,0.02405s-0.0108,0.02402 -0.02405,0.02402zm0,-0.03806c-0.00775,0 -0.01404,0.00629 -0.01404,0.01404c0,0.00775 0.00629,0.01401 0.01404,0.01401c0.00775,0 0.01404,-0.00626 0.01404,-0.01401c0,-0.00775 -0.00629,-0.01404 -0.01404,-0.01404z" stroke-width="0" fill="#000000"/>
  <path id="svg_24" d="m155.29514,266.69559c-0.03772,0 -0.06749,0.03857 -0.06749,0.03857s0.02977,0.03857 0.06749,0.03857c0.02885,0 0.0675,-0.03857 0.0675,-0.03857s-0.03865,-0.03857 -0.0675,-0.03857zm0,0.06262c-0.01324,0 -0.02403,-0.0108 -0.02403,-0.02405s0.01079,-0.02402 0.02403,-0.02402s0.02405,0.01077 0.02405,0.02402s-0.0108,0.02405 -0.02405,0.02405zm0,-0.03806c-0.00774,0 -0.01402,0.00626 -0.01402,0.01401c0,0.00775 0.00627,0.01404 0.01402,0.01404c0.00775,0 0.01404,-0.00629 0.01404,-0.01404c0,-0.00775 -0.00629,-0.01401 -0.01404,-0.01401z" stroke-width="0" stroke="#000" fill="#000000"/>
  <text stroke="#000" transform="rotate(-3.9842 178.003 498.776) matrix(1.07631 0 0 1.09306 -11.9708 -47.8268)" xml:space="preserve" text-anchor="start" font-family="'Andada Pro'" font-size="24" id="svg_30" y="508.54493" x="150.99792" stroke-width="0" fill="#000000">L.M</text>
  <path id="svg_31" d="m572.69397,404.50189c-0.03772,0 -0.06744,0.03857 -0.06744,0.03857s0.02972,0.03857 0.06744,0.03857c0.02887,0 0.0675,-0.03857 0.0675,-0.03857s-0.03864,-0.03857 -0.0675,-0.03857zm0,0.06259c-0.01324,0 -0.02399,-0.01077 -0.02399,-0.02402s0.01074,-0.02405 0.02399,-0.02405s0.02405,0.0108 0.02405,0.02405s-0.0108,0.02402 -0.02405,0.02402zm0,-0.03806c-0.00769,0 -0.01398,0.00629 -0.01398,0.01404c0,0.00775 0.00623,0.01401 0.01398,0.01401c0.00775,0 0.01404,-0.00626 0.01404,-0.01401c0,-0.00775 -0.00629,-0.01404 -0.01404,-0.01404z" stroke-width="0" stroke="#000" fill="#84D3DB"/>
  <path id="svg_32" d="m601.54877,407.48685c-0.03772,0 -0.0675,0.03857 -0.0675,0.03857s0.02979,0.03857 0.0675,0.03857c0.02887,0 0.0675,-0.03857 0.0675,-0.03857s-0.03864,-0.03857 -0.0675,-0.03857zm0,0.06262c-0.01324,0 -0.02405,-0.0108 -0.02405,-0.02405s0.0108,-0.02402 0.02405,-0.02402s0.02405,0.01077 0.02405,0.02402s-0.0108,0.02405 -0.02405,0.02405zm0,-0.03809c-0.00775,0 -0.01404,0.00629 -0.01404,0.01404c0,0.00775 0.00629,0.01404 0.01404,0.01404c0.00775,0 0.01404,-0.00629 0.01404,-0.01404c0,-0.00775 -0.00629,-0.01404 -0.01404,-0.01404z" stroke-width="0" stroke="#000" fill="#84D3DB"/>
 </g>
</svg>